<?xml version="1.0" encoding="utf-8"?><!DOCTYPE svg PUBLIC "-//W3C//DTD SVG 1.1//EN" "http://www.w3.org/Graphics/SVG/1.1/DTD/svg11.dtd"><svg version="1.1" xmlns="http://www.w3.org/2000/svg" xmlns:xlink="http://www.w3.org/1999/xlink" width="32" height="32" viewBox="0 0 32 32" data-tags="moonset"><g fill="#444" transform="scale(0.03125 0.03125)"><path d="M681.838 490.595c-19.106 76.535-88.316 133.232-170.768 133.232-97.202 0-176-78.798-176-176 0-82.452 56.698-151.662 133.232-170.768 11.244-2.807 22.917-4.533 34.901-5.060-5.268 14.965-8.133 31.061-8.133 47.827 0 79.529 64.471 144 144 144 16.766 0 32.863-2.865 47.827-8.133-0.527 11.984-2.253 23.656-5.060 34.901v0zM240.263 704c-8.982 0-16.263-7.422-16.263-16 0-8.837 7.252-16 16.263-16h194.404l93.333 80 93.333-80h194.404c8.982 0 16.263 7.422 16.263 16 0 8.837-7.252 16-16.263 16h-175.737l-112 96-112-96h-175.737z" /></g></svg>